<mxfile host="65bd71144e">
    <diagram id="Q7YpSikZcmVdA5Nnaxv-" name="Page-1">
        <mxGraphModel dx="984" dy="736" grid="1" gridSize="10" guides="1" tooltips="1" connect="1" arrows="1" fold="1" page="1" pageScale="1" pageWidth="1200" pageHeight="1600" math="0" shadow="0">
            <root>
                <mxCell id="0"/>
                <mxCell id="1" parent="0"/>
                <mxCell id="4" value="" style="shape=internalStorage;whiteSpace=wrap;html=1;backgroundOutline=1;dx=20;dy=20;" parent="1" vertex="1">
                    <mxGeometry x="495" y="410" width="100" height="100" as="geometry"/>
                </mxCell>
                <mxCell id="5" value="User" style="text;html=1;strokeColor=none;fillColor=none;align=center;verticalAlign=middle;whiteSpace=wrap;rounded=0;" parent="1" vertex="1">
                    <mxGeometry x="515" y="410" width="80" height="20" as="geometry"/>
                </mxCell>
                <mxCell id="6" value="UserID" style="text;html=1;strokeColor=none;fillColor=none;align=center;verticalAlign=middle;whiteSpace=wrap;rounded=0;" parent="1" vertex="1">
                    <mxGeometry x="515" y="430" width="80" height="20" as="geometry"/>
                </mxCell>
                <mxCell id="7" value="PK" style="text;html=1;strokeColor=none;fillColor=none;align=center;verticalAlign=middle;whiteSpace=wrap;rounded=0;" parent="1" vertex="1">
                    <mxGeometry x="495" y="430" width="20" height="20" as="geometry"/>
                </mxCell>
                <mxCell id="8" value="Username" style="text;html=1;strokeColor=none;fillColor=none;align=center;verticalAlign=middle;whiteSpace=wrap;rounded=0;" parent="1" vertex="1">
                    <mxGeometry x="515" y="450" width="80" height="20" as="geometry"/>
                </mxCell>
                <mxCell id="9" value="Email" style="text;html=1;strokeColor=none;fillColor=none;align=center;verticalAlign=middle;whiteSpace=wrap;rounded=0;" parent="1" vertex="1">
                    <mxGeometry x="515" y="470" width="80" height="20" as="geometry"/>
                </mxCell>
                <mxCell id="10" value="Password" style="text;html=1;strokeColor=none;fillColor=none;align=center;verticalAlign=middle;whiteSpace=wrap;rounded=0;" parent="1" vertex="1">
                    <mxGeometry x="515" y="490" width="80" height="20" as="geometry"/>
                </mxCell>
                <mxCell id="16" value="" style="shape=internalStorage;whiteSpace=wrap;html=1;backgroundOutline=1;dx=20;dy=20;" parent="1" vertex="1">
                    <mxGeometry x="670" y="410" width="100" height="100" as="geometry"/>
                </mxCell>
                <mxCell id="17" value="Garden" style="text;html=1;strokeColor=none;fillColor=none;align=center;verticalAlign=middle;whiteSpace=wrap;rounded=0;" parent="1" vertex="1">
                    <mxGeometry x="690" y="410" width="80" height="20" as="geometry"/>
                </mxCell>
                <mxCell id="18" value="GardenID" style="text;html=1;strokeColor=none;fillColor=none;align=center;verticalAlign=middle;whiteSpace=wrap;rounded=0;" parent="1" vertex="1">
                    <mxGeometry x="690" y="430" width="80" height="20" as="geometry"/>
                </mxCell>
                <mxCell id="19" value="PK" style="text;html=1;strokeColor=none;fillColor=none;align=center;verticalAlign=middle;whiteSpace=wrap;rounded=0;" parent="1" vertex="1">
                    <mxGeometry x="670" y="430" width="20" height="20" as="geometry"/>
                </mxCell>
                <mxCell id="20" value="Name" style="text;html=1;strokeColor=none;fillColor=none;align=center;verticalAlign=middle;whiteSpace=wrap;rounded=0;" parent="1" vertex="1">
                    <mxGeometry x="690" y="450" width="80" height="20" as="geometry"/>
                </mxCell>
                <mxCell id="21" value="Location" style="text;html=1;strokeColor=none;fillColor=none;align=center;verticalAlign=middle;whiteSpace=wrap;rounded=0;" parent="1" vertex="1">
                    <mxGeometry x="690" y="470" width="80" height="20" as="geometry"/>
                </mxCell>
                <mxCell id="22" value="Description" style="text;html=1;strokeColor=none;fillColor=none;align=center;verticalAlign=middle;whiteSpace=wrap;rounded=0;" parent="1" vertex="1">
                    <mxGeometry x="690" y="490" width="80" height="20" as="geometry"/>
                </mxCell>
                <mxCell id="23" value="" style="shape=internalStorage;whiteSpace=wrap;html=1;backgroundOutline=1;dx=20;dy=20;" parent="1" vertex="1">
                    <mxGeometry x="830" y="600" width="100" height="140" as="geometry"/>
                </mxCell>
                <mxCell id="24" value="Garden Plot" style="text;html=1;strokeColor=none;fillColor=none;align=center;verticalAlign=middle;whiteSpace=wrap;rounded=0;" parent="1" vertex="1">
                    <mxGeometry x="850" y="600" width="80" height="20" as="geometry"/>
                </mxCell>
                <mxCell id="25" value="PlotID" style="text;html=1;strokeColor=none;fillColor=none;align=center;verticalAlign=middle;whiteSpace=wrap;rounded=0;" parent="1" vertex="1">
                    <mxGeometry x="850" y="620" width="80" height="20" as="geometry"/>
                </mxCell>
                <mxCell id="26" value="PK" style="text;html=1;strokeColor=none;fillColor=none;align=center;verticalAlign=middle;whiteSpace=wrap;rounded=0;" parent="1" vertex="1">
                    <mxGeometry x="830" y="620" width="20" height="20" as="geometry"/>
                </mxCell>
                <mxCell id="27" value="GardenID" style="text;html=1;strokeColor=none;fillColor=none;align=center;verticalAlign=middle;whiteSpace=wrap;rounded=0;" parent="1" vertex="1">
                    <mxGeometry x="850" y="640" width="80" height="20" as="geometry"/>
                </mxCell>
                <mxCell id="28" value="PlotSize" style="text;html=1;strokeColor=none;fillColor=none;align=center;verticalAlign=middle;whiteSpace=wrap;rounded=0;" parent="1" vertex="1">
                    <mxGeometry x="850" y="660" width="80" height="20" as="geometry"/>
                </mxCell>
                <mxCell id="29" value="SunLight" style="text;html=1;strokeColor=none;fillColor=none;align=center;verticalAlign=middle;whiteSpace=wrap;rounded=0;" parent="1" vertex="1">
                    <mxGeometry x="850" y="680" width="80" height="20" as="geometry"/>
                </mxCell>
                <mxCell id="30" value="FK" style="text;html=1;strokeColor=none;fillColor=none;align=center;verticalAlign=middle;whiteSpace=wrap;rounded=0;" parent="1" vertex="1">
                    <mxGeometry x="830" y="640" width="20" height="20" as="geometry"/>
                </mxCell>
                <mxCell id="31" value="SoilType" style="text;html=1;strokeColor=none;fillColor=none;align=center;verticalAlign=middle;whiteSpace=wrap;rounded=0;" parent="1" vertex="1">
                    <mxGeometry x="850" y="700" width="80" height="20" as="geometry"/>
                </mxCell>
                <mxCell id="32" value="Available" style="text;html=1;strokeColor=none;fillColor=none;align=center;verticalAlign=middle;whiteSpace=wrap;rounded=0;" parent="1" vertex="1">
                    <mxGeometry x="850" y="720" width="80" height="20" as="geometry"/>
                </mxCell>
                <mxCell id="33" value="" style="shape=internalStorage;whiteSpace=wrap;html=1;backgroundOutline=1;dx=20;dy=20;" parent="1" vertex="1">
                    <mxGeometry x="495" y="570" width="130" height="140" as="geometry"/>
                </mxCell>
                <mxCell id="34" value="Planting Activity" style="text;html=1;strokeColor=none;fillColor=none;align=center;verticalAlign=middle;whiteSpace=wrap;rounded=0;" parent="1" vertex="1">
                    <mxGeometry x="515" y="570" width="110" height="20" as="geometry"/>
                </mxCell>
                <mxCell id="35" value="ActivityID" style="text;html=1;strokeColor=none;fillColor=none;align=center;verticalAlign=middle;whiteSpace=wrap;rounded=0;" parent="1" vertex="1">
                    <mxGeometry x="515" y="590" width="110" height="20" as="geometry"/>
                </mxCell>
                <mxCell id="36" value="PK" style="text;html=1;strokeColor=none;fillColor=none;align=center;verticalAlign=middle;whiteSpace=wrap;rounded=0;" parent="1" vertex="1">
                    <mxGeometry x="495" y="590" width="20" height="20" as="geometry"/>
                </mxCell>
                <mxCell id="37" value="UserID" style="text;html=1;strokeColor=none;fillColor=none;align=center;verticalAlign=middle;whiteSpace=wrap;rounded=0;" parent="1" vertex="1">
                    <mxGeometry x="515" y="610" width="110" height="20" as="geometry"/>
                </mxCell>
                <mxCell id="38" value="PlotID" style="text;html=1;strokeColor=none;fillColor=none;align=center;verticalAlign=middle;whiteSpace=wrap;rounded=0;" parent="1" vertex="1">
                    <mxGeometry x="515" y="630" width="110" height="20" as="geometry"/>
                </mxCell>
                <mxCell id="40" value="FK" style="text;html=1;strokeColor=none;fillColor=none;align=center;verticalAlign=middle;whiteSpace=wrap;rounded=0;" parent="1" vertex="1">
                    <mxGeometry x="495" y="610" width="20" height="20" as="geometry"/>
                </mxCell>
                <mxCell id="41" value="PlantDate" style="text;html=1;strokeColor=none;fillColor=none;align=center;verticalAlign=middle;whiteSpace=wrap;rounded=0;" parent="1" vertex="1">
                    <mxGeometry x="515" y="650" width="110" height="20" as="geometry"/>
                </mxCell>
                <mxCell id="42" value="HarvestDate" style="text;html=1;strokeColor=none;fillColor=none;align=center;verticalAlign=middle;whiteSpace=wrap;rounded=0;" parent="1" vertex="1">
                    <mxGeometry x="515" y="670" width="110" height="20" as="geometry"/>
                </mxCell>
                <mxCell id="43" value="FK" style="text;html=1;strokeColor=none;fillColor=none;align=center;verticalAlign=middle;whiteSpace=wrap;rounded=0;" parent="1" vertex="1">
                    <mxGeometry x="495" y="630" width="20" height="20" as="geometry"/>
                </mxCell>
                <mxCell id="45" value="" style="shape=internalStorage;whiteSpace=wrap;html=1;backgroundOutline=1;dx=20;dy=20;" parent="1" vertex="1">
                    <mxGeometry x="475" y="760.36" width="120" height="100" as="geometry"/>
                </mxCell>
                <mxCell id="46" value="Plant" style="text;html=1;strokeColor=none;fillColor=none;align=center;verticalAlign=middle;whiteSpace=wrap;rounded=0;" parent="1" vertex="1">
                    <mxGeometry x="495" y="760.36" width="100" height="20" as="geometry"/>
                </mxCell>
                <mxCell id="47" value="PlantID" style="text;html=1;strokeColor=none;fillColor=none;align=center;verticalAlign=middle;whiteSpace=wrap;rounded=0;" parent="1" vertex="1">
                    <mxGeometry x="495" y="780.36" width="100" height="20" as="geometry"/>
                </mxCell>
                <mxCell id="48" value="PK" style="text;html=1;strokeColor=none;fillColor=none;align=center;verticalAlign=middle;whiteSpace=wrap;rounded=0;" parent="1" vertex="1">
                    <mxGeometry x="475" y="780.36" width="20" height="20" as="geometry"/>
                </mxCell>
                <mxCell id="49" value="Name" style="text;html=1;strokeColor=none;fillColor=none;align=center;verticalAlign=middle;whiteSpace=wrap;rounded=0;" parent="1" vertex="1">
                    <mxGeometry x="495" y="800.36" width="100" height="20" as="geometry"/>
                </mxCell>
                <mxCell id="50" value="GrowingSeason" style="text;html=1;strokeColor=none;fillColor=none;align=center;verticalAlign=middle;whiteSpace=wrap;rounded=0;" parent="1" vertex="1">
                    <mxGeometry x="495" y="820.36" width="100" height="20" as="geometry"/>
                </mxCell>
                <mxCell id="51" value="Description" style="text;html=1;strokeColor=none;fillColor=none;align=center;verticalAlign=middle;whiteSpace=wrap;rounded=0;" parent="1" vertex="1">
                    <mxGeometry x="495" y="840.36" width="100" height="20" as="geometry"/>
                </mxCell>
                <mxCell id="52" value="" style="shape=internalStorage;whiteSpace=wrap;html=1;backgroundOutline=1;dx=20;dy=20;" parent="1" vertex="1">
                    <mxGeometry x="30" y="610" width="140" height="100" as="geometry"/>
                </mxCell>
                <mxCell id="53" value="Resource" style="text;html=1;strokeColor=none;fillColor=none;align=center;verticalAlign=middle;whiteSpace=wrap;rounded=0;" parent="1" vertex="1">
                    <mxGeometry x="50" y="610" width="120" height="20" as="geometry"/>
                </mxCell>
                <mxCell id="54" value="ResourceID" style="text;html=1;strokeColor=none;fillColor=none;align=center;verticalAlign=middle;whiteSpace=wrap;rounded=0;" parent="1" vertex="1">
                    <mxGeometry x="50" y="630" width="120" height="20" as="geometry"/>
                </mxCell>
                <mxCell id="55" value="PK" style="text;html=1;strokeColor=none;fillColor=none;align=center;verticalAlign=middle;whiteSpace=wrap;rounded=0;" parent="1" vertex="1">
                    <mxGeometry x="30" y="630" width="20" height="20" as="geometry"/>
                </mxCell>
                <mxCell id="56" value="Type" style="text;html=1;strokeColor=none;fillColor=none;align=center;verticalAlign=middle;whiteSpace=wrap;rounded=0;" parent="1" vertex="1">
                    <mxGeometry x="50" y="650" width="120" height="20" as="geometry"/>
                </mxCell>
                <mxCell id="57" value="Description" style="text;html=1;strokeColor=none;fillColor=none;align=center;verticalAlign=middle;whiteSpace=wrap;rounded=0;" parent="1" vertex="1">
                    <mxGeometry x="50" y="670" width="120" height="20" as="geometry"/>
                </mxCell>
                <mxCell id="58" value="AvailableQuantity" style="text;html=1;strokeColor=none;fillColor=none;align=center;verticalAlign=middle;whiteSpace=wrap;rounded=0;" parent="1" vertex="1">
                    <mxGeometry x="50" y="690" width="120" height="20" as="geometry"/>
                </mxCell>
                <mxCell id="59" value="" style="shape=internalStorage;whiteSpace=wrap;html=1;backgroundOutline=1;dx=20;dy=20;" parent="1" vertex="1">
                    <mxGeometry x="240" y="610" width="130" height="160" as="geometry"/>
                </mxCell>
                <mxCell id="60" value="Exchange" style="text;html=1;strokeColor=none;fillColor=none;align=center;verticalAlign=middle;whiteSpace=wrap;rounded=0;" parent="1" vertex="1">
                    <mxGeometry x="260" y="610" width="110" height="20" as="geometry"/>
                </mxCell>
                <mxCell id="61" value="ExchangeID" style="text;html=1;strokeColor=none;fillColor=none;align=center;verticalAlign=middle;whiteSpace=wrap;rounded=0;" parent="1" vertex="1">
                    <mxGeometry x="260" y="630" width="110" height="20" as="geometry"/>
                </mxCell>
                <mxCell id="62" value="PK" style="text;html=1;strokeColor=none;fillColor=none;align=center;verticalAlign=middle;whiteSpace=wrap;rounded=0;" parent="1" vertex="1">
                    <mxGeometry x="240" y="630" width="20" height="20" as="geometry"/>
                </mxCell>
                <mxCell id="64" value="OfferUserID" style="text;html=1;strokeColor=none;fillColor=none;align=center;verticalAlign=middle;whiteSpace=wrap;rounded=0;" parent="1" vertex="1">
                    <mxGeometry x="260" y="650" width="110" height="20" as="geometry"/>
                </mxCell>
                <mxCell id="65" value="RequestorUserID" style="text;html=1;strokeColor=none;fillColor=none;align=center;verticalAlign=middle;whiteSpace=wrap;rounded=0;" parent="1" vertex="1">
                    <mxGeometry x="260" y="670" width="110" height="20" as="geometry"/>
                </mxCell>
                <mxCell id="67" value="Status( e.g., offered, requested , completed )" style="text;html=1;strokeColor=none;fillColor=none;align=center;verticalAlign=middle;whiteSpace=wrap;rounded=0;" parent="1" vertex="1">
                    <mxGeometry x="260" y="700" width="110" height="40" as="geometry"/>
                </mxCell>
                <mxCell id="69" value="FK" style="text;html=1;strokeColor=none;fillColor=none;align=center;verticalAlign=middle;whiteSpace=wrap;rounded=0;" parent="1" vertex="1">
                    <mxGeometry x="240" y="650" width="20" height="20" as="geometry"/>
                </mxCell>
                <mxCell id="70" value="FK" style="text;html=1;strokeColor=none;fillColor=none;align=center;verticalAlign=middle;whiteSpace=wrap;rounded=0;" parent="1" vertex="1">
                    <mxGeometry x="240" y="670" width="20" height="20" as="geometry"/>
                </mxCell>
                <mxCell id="71" value="" style="shape=internalStorage;whiteSpace=wrap;html=1;backgroundOutline=1;dx=20;dy=20;" parent="1" vertex="1">
                    <mxGeometry x="900" y="310" width="115" height="100" as="geometry"/>
                </mxCell>
                <mxCell id="72" value="VolunteerEvent" style="text;html=1;strokeColor=none;fillColor=none;align=center;verticalAlign=middle;whiteSpace=wrap;rounded=0;" parent="1" vertex="1">
                    <mxGeometry x="920" y="310" width="95" height="20" as="geometry"/>
                </mxCell>
                <mxCell id="73" value="EventID" style="text;html=1;strokeColor=none;fillColor=none;align=center;verticalAlign=middle;whiteSpace=wrap;rounded=0;" parent="1" vertex="1">
                    <mxGeometry x="920" y="330" width="95" height="20" as="geometry"/>
                </mxCell>
                <mxCell id="74" value="PK" style="text;html=1;strokeColor=none;fillColor=none;align=center;verticalAlign=middle;whiteSpace=wrap;rounded=0;" parent="1" vertex="1">
                    <mxGeometry x="900" y="330" width="20" height="20" as="geometry"/>
                </mxCell>
                <mxCell id="75" value="GardenID" style="text;html=1;strokeColor=none;fillColor=none;align=center;verticalAlign=middle;whiteSpace=wrap;rounded=0;" parent="1" vertex="1">
                    <mxGeometry x="920" y="350" width="95" height="20" as="geometry"/>
                </mxCell>
                <mxCell id="76" value="Date" style="text;html=1;strokeColor=none;fillColor=none;align=center;verticalAlign=middle;whiteSpace=wrap;rounded=0;" parent="1" vertex="1">
                    <mxGeometry x="920" y="370" width="95" height="20" as="geometry"/>
                </mxCell>
                <mxCell id="77" value="Description" style="text;html=1;strokeColor=none;fillColor=none;align=center;verticalAlign=middle;whiteSpace=wrap;rounded=0;" parent="1" vertex="1">
                    <mxGeometry x="920" y="390" width="95" height="20" as="geometry"/>
                </mxCell>
                <mxCell id="78" value="FK" style="text;html=1;strokeColor=none;fillColor=none;align=center;verticalAlign=middle;whiteSpace=wrap;rounded=0;" parent="1" vertex="1">
                    <mxGeometry x="900" y="350" width="20" height="20" as="geometry"/>
                </mxCell>
                <mxCell id="81" value="" style="shape=internalStorage;whiteSpace=wrap;html=1;backgroundOutline=1;dx=20;dy=20;" parent="1" vertex="1">
                    <mxGeometry x="40.71" y="760" width="115" height="140" as="geometry"/>
                </mxCell>
                <mxCell id="82" value="Partnership" style="text;html=1;strokeColor=none;fillColor=none;align=center;verticalAlign=middle;whiteSpace=wrap;rounded=0;" parent="1" vertex="1">
                    <mxGeometry x="60.71" y="760" width="95" height="20" as="geometry"/>
                </mxCell>
                <mxCell id="83" value="PartnershipID" style="text;html=1;strokeColor=none;fillColor=none;align=center;verticalAlign=middle;whiteSpace=wrap;rounded=0;" parent="1" vertex="1">
                    <mxGeometry x="60.71" y="780" width="95" height="20" as="geometry"/>
                </mxCell>
                <mxCell id="84" value="PK" style="text;html=1;strokeColor=none;fillColor=none;align=center;verticalAlign=middle;whiteSpace=wrap;rounded=0;" parent="1" vertex="1">
                    <mxGeometry x="40.71" y="780" width="20" height="20" as="geometry"/>
                </mxCell>
                <mxCell id="85" value="Name" style="text;html=1;strokeColor=none;fillColor=none;align=center;verticalAlign=middle;whiteSpace=wrap;rounded=0;" parent="1" vertex="1">
                    <mxGeometry x="60.71" y="800" width="95" height="20" as="geometry"/>
                </mxCell>
                <mxCell id="86" value="Type ( e.g., nursery, farm, organaization )" style="text;html=1;strokeColor=none;fillColor=none;align=center;verticalAlign=middle;whiteSpace=wrap;rounded=0;" parent="1" vertex="1">
                    <mxGeometry x="60.71" y="820" width="95" height="60" as="geometry"/>
                </mxCell>
                <mxCell id="87" value="ContactInfo" style="text;html=1;strokeColor=none;fillColor=none;align=center;verticalAlign=middle;whiteSpace=wrap;rounded=0;" parent="1" vertex="1">
                    <mxGeometry x="60.71" y="880" width="95" height="20" as="geometry"/>
                </mxCell>
                <mxCell id="90" value="" style="shape=internalStorage;whiteSpace=wrap;html=1;backgroundOutline=1;dx=20;dy=20;" parent="1" vertex="1">
                    <mxGeometry x="110" y="380" width="115" height="100" as="geometry"/>
                </mxCell>
                <mxCell id="91" value="Guide" style="text;html=1;strokeColor=none;fillColor=none;align=center;verticalAlign=middle;whiteSpace=wrap;rounded=0;" parent="1" vertex="1">
                    <mxGeometry x="130" y="380" width="95" height="20" as="geometry"/>
                </mxCell>
                <mxCell id="92" value="GuideID" style="text;html=1;strokeColor=none;fillColor=none;align=center;verticalAlign=middle;whiteSpace=wrap;rounded=0;" parent="1" vertex="1">
                    <mxGeometry x="130" y="400" width="95" height="20" as="geometry"/>
                </mxCell>
                <mxCell id="93" value="PK" style="text;html=1;strokeColor=none;fillColor=none;align=center;verticalAlign=middle;whiteSpace=wrap;rounded=0;" parent="1" vertex="1">
                    <mxGeometry x="110" y="400" width="20" height="20" as="geometry"/>
                </mxCell>
                <mxCell id="94" value="AuthorUserID" style="text;html=1;strokeColor=none;fillColor=none;align=center;verticalAlign=middle;whiteSpace=wrap;rounded=0;" parent="1" vertex="1">
                    <mxGeometry x="130" y="420" width="95" height="20" as="geometry"/>
                </mxCell>
                <mxCell id="95" value="Title" style="text;html=1;strokeColor=none;fillColor=none;align=center;verticalAlign=middle;whiteSpace=wrap;rounded=0;" parent="1" vertex="1">
                    <mxGeometry x="130" y="440" width="95" height="20" as="geometry"/>
                </mxCell>
                <mxCell id="96" value="Content" style="text;html=1;strokeColor=none;fillColor=none;align=center;verticalAlign=middle;whiteSpace=wrap;rounded=0;" parent="1" vertex="1">
                    <mxGeometry x="130" y="460" width="95" height="20" as="geometry"/>
                </mxCell>
                <mxCell id="97" value="FK" style="text;html=1;strokeColor=none;fillColor=none;align=center;verticalAlign=middle;whiteSpace=wrap;rounded=0;" parent="1" vertex="1">
                    <mxGeometry x="110" y="420" width="20" height="20" as="geometry"/>
                </mxCell>
                <mxCell id="101" value="" style="endArrow=none;html=1;rounded=0;exitX=1;exitY=0.25;exitDx=0;exitDy=0;entryX=0;entryY=0.5;entryDx=0;entryDy=0;" parent="1" source="8" target="16" edge="1">
                    <mxGeometry relative="1" as="geometry">
                        <mxPoint x="805" y="570" as="sourcePoint"/>
                        <mxPoint x="965" y="570" as="targetPoint"/>
                    </mxGeometry>
                </mxCell>
                <mxCell id="102" value="M" style="resizable=0;html=1;align=left;verticalAlign=bottom;" parent="101" connectable="0" vertex="1">
                    <mxGeometry x="-1" relative="1" as="geometry"/>
                </mxCell>
                <mxCell id="103" value="N" style="resizable=0;html=1;align=right;verticalAlign=bottom;" parent="101" connectable="0" vertex="1">
                    <mxGeometry x="1" relative="1" as="geometry"/>
                </mxCell>
                <mxCell id="104" value="" style="endArrow=none;html=1;rounded=0;entryX=1;entryY=0;entryDx=0;entryDy=0;exitX=0;exitY=0;exitDx=0;exitDy=0;" parent="1" source="30" target="20" edge="1">
                    <mxGeometry relative="1" as="geometry">
                        <mxPoint x="805" y="570" as="sourcePoint"/>
                        <mxPoint x="965" y="570" as="targetPoint"/>
                        <Array as="points">
                            <mxPoint x="830" y="450"/>
                        </Array>
                    </mxGeometry>
                </mxCell>
                <mxCell id="105" value="1" style="resizable=0;html=1;align=right;verticalAlign=bottom;" parent="104" connectable="0" vertex="1">
                    <mxGeometry x="1" relative="1" as="geometry">
                        <mxPoint x="10" as="offset"/>
                    </mxGeometry>
                </mxCell>
                <mxCell id="106" value="M" style="resizable=0;html=1;align=left;verticalAlign=bottom;" parent="1" connectable="0" vertex="1">
                    <mxGeometry x="810" y="640" as="geometry"/>
                </mxCell>
                <mxCell id="107" value="" style="endArrow=none;html=1;rounded=0;edgeStyle=orthogonalEdgeStyle;entryX=0;entryY=0.5;entryDx=0;entryDy=0;" parent="1" target="4" edge="1">
                    <mxGeometry relative="1" as="geometry">
                        <mxPoint x="495" y="620" as="sourcePoint"/>
                        <mxPoint x="490" y="460" as="targetPoint"/>
                        <Array as="points">
                            <mxPoint x="495" y="620"/>
                            <mxPoint x="420" y="620"/>
                            <mxPoint x="420" y="460"/>
                        </Array>
                    </mxGeometry>
                </mxCell>
                <mxCell id="108" value="1" style="resizable=0;html=1;align=right;verticalAlign=bottom;" parent="107" connectable="0" vertex="1">
                    <mxGeometry x="1" relative="1" as="geometry">
                        <mxPoint x="-5" as="offset"/>
                    </mxGeometry>
                </mxCell>
                <mxCell id="109" value="M" style="resizable=0;html=1;align=left;verticalAlign=bottom;" parent="1" connectable="0" vertex="1">
                    <mxGeometry x="480" y="620" as="geometry"/>
                </mxCell>
                <mxCell id="110" value="" style="endArrow=none;html=1;rounded=0;edgeStyle=orthogonalEdgeStyle;entryX=-0.007;entryY=0.63;entryDx=0;entryDy=0;entryPerimeter=0;exitX=1;exitY=0.5;exitDx=0;exitDy=0;" parent="1" source="38" target="23" edge="1">
                    <mxGeometry relative="1" as="geometry">
                        <mxPoint x="660" y="690" as="sourcePoint"/>
                        <mxPoint x="860" y="500" as="targetPoint"/>
                        <Array as="points">
                            <mxPoint x="690" y="640"/>
                            <mxPoint x="690" y="540"/>
                            <mxPoint x="780" y="540"/>
                            <mxPoint x="780" y="688"/>
                        </Array>
                    </mxGeometry>
                </mxCell>
                <mxCell id="111" value="1" style="resizable=0;html=1;align=right;verticalAlign=bottom;" parent="110" connectable="0" vertex="1">
                    <mxGeometry x="1" relative="1" as="geometry">
                        <mxPoint x="-5" as="offset"/>
                    </mxGeometry>
                </mxCell>
                <mxCell id="112" value="M" style="resizable=0;html=1;align=left;verticalAlign=bottom;" parent="1" connectable="0" vertex="1">
                    <mxGeometry x="625" y="640" as="geometry"/>
                </mxCell>
                <mxCell id="114" value="" style="endArrow=none;html=1;rounded=0;exitX=1;exitY=0.5;exitDx=0;exitDy=0;entryX=0;entryY=0.5;entryDx=0;entryDy=0;" parent="1" source="54" edge="1">
                    <mxGeometry relative="1" as="geometry">
                        <mxPoint x="190" y="640" as="sourcePoint"/>
                        <mxPoint x="240" y="660" as="targetPoint"/>
                        <Array as="points">
                            <mxPoint x="190" y="640"/>
                            <mxPoint x="190" y="660"/>
                            <mxPoint x="210" y="660"/>
                        </Array>
                    </mxGeometry>
                </mxCell>
                <mxCell id="115" value="M" style="resizable=0;html=1;align=left;verticalAlign=bottom;" parent="114" connectable="0" vertex="1">
                    <mxGeometry x="-1" relative="1" as="geometry"/>
                </mxCell>
                <mxCell id="116" value="N" style="resizable=0;html=1;align=right;verticalAlign=bottom;" parent="114" connectable="0" vertex="1">
                    <mxGeometry x="1" relative="1" as="geometry">
                        <mxPoint as="offset"/>
                    </mxGeometry>
                </mxCell>
                <mxCell id="117" value="" style="endArrow=none;html=1;rounded=0;edgeStyle=orthogonalEdgeStyle;entryX=0;entryY=0.5;entryDx=0;entryDy=0;exitX=1;exitY=0.5;exitDx=0;exitDy=0;" parent="1" target="7" edge="1">
                    <mxGeometry relative="1" as="geometry">
                        <mxPoint x="370" y="660" as="sourcePoint"/>
                        <mxPoint x="455" y="440" as="targetPoint"/>
                        <Array as="points">
                            <mxPoint x="380" y="660"/>
                            <mxPoint x="380" y="440"/>
                        </Array>
                    </mxGeometry>
                </mxCell>
                <mxCell id="118" value="1" style="resizable=0;html=1;align=right;verticalAlign=bottom;" parent="117" connectable="0" vertex="1">
                    <mxGeometry x="1" relative="1" as="geometry">
                        <mxPoint x="-5" as="offset"/>
                    </mxGeometry>
                </mxCell>
                <mxCell id="119" value="M" style="resizable=0;html=1;align=left;verticalAlign=bottom;" parent="1" connectable="0" vertex="1">
                    <mxGeometry x="490" y="490" as="geometry">
                        <mxPoint x="-104" y="172" as="offset"/>
                    </mxGeometry>
                </mxCell>
                <mxCell id="120" value="" style="endArrow=none;html=1;rounded=0;entryX=0.5;entryY=0;entryDx=0;entryDy=0;exitX=0;exitY=0.5;exitDx=0;exitDy=0;" parent="1" source="78" target="17" edge="1">
                    <mxGeometry relative="1" as="geometry">
                        <mxPoint x="810" y="230" as="sourcePoint"/>
                        <mxPoint x="780" y="460" as="targetPoint"/>
                        <Array as="points">
                            <mxPoint x="810" y="360"/>
                            <mxPoint x="730" y="360"/>
                        </Array>
                    </mxGeometry>
                </mxCell>
                <mxCell id="121" value="1" style="resizable=0;html=1;align=right;verticalAlign=bottom;" parent="120" connectable="0" vertex="1">
                    <mxGeometry x="1" relative="1" as="geometry">
                        <mxPoint x="-7" as="offset"/>
                    </mxGeometry>
                </mxCell>
                <mxCell id="122" value="M" style="resizable=0;html=1;align=left;verticalAlign=bottom;" parent="1" connectable="0" vertex="1">
                    <mxGeometry x="820" y="650" as="geometry">
                        <mxPoint x="-73" y="-232" as="offset"/>
                    </mxGeometry>
                </mxCell>
                <mxCell id="123" value="" style="endArrow=none;html=1;rounded=0;entryX=1;entryY=0;entryDx=0;entryDy=0;exitX=1;exitY=0.5;exitDx=0;exitDy=0;" parent="1" target="46" edge="1">
                    <mxGeometry relative="1" as="geometry">
                        <mxPoint x="625" y="660" as="sourcePoint"/>
                        <mxPoint x="590" y="790" as="targetPoint"/>
                        <Array as="points">
                            <mxPoint x="660" y="660"/>
                            <mxPoint x="660" y="760"/>
                            <mxPoint x="620" y="760"/>
                        </Array>
                    </mxGeometry>
                </mxCell>
                <mxCell id="124" value="M" style="resizable=0;html=1;align=left;verticalAlign=bottom;" parent="123" connectable="0" vertex="1">
                    <mxGeometry x="-1" relative="1" as="geometry"/>
                </mxCell>
                <mxCell id="125" value="N" style="resizable=0;html=1;align=right;verticalAlign=bottom;" parent="123" connectable="0" vertex="1">
                    <mxGeometry x="1" relative="1" as="geometry">
                        <mxPoint as="offset"/>
                    </mxGeometry>
                </mxCell>
                <mxCell id="130" value="" style="endArrow=none;html=1;rounded=0;entryX=1;entryY=0.5;entryDx=0;entryDy=0;" parent="1" target="83" edge="1">
                    <mxGeometry relative="1" as="geometry">
                        <mxPoint x="170" y="640" as="sourcePoint"/>
                        <mxPoint x="250" y="890" as="targetPoint"/>
                        <Array as="points">
                            <mxPoint x="180" y="660"/>
                            <mxPoint x="180" y="790"/>
                        </Array>
                    </mxGeometry>
                </mxCell>
                <mxCell id="131" value="M" style="resizable=0;html=1;align=left;verticalAlign=bottom;" parent="130" connectable="0" vertex="1">
                    <mxGeometry x="-1" relative="1" as="geometry"/>
                </mxCell>
                <mxCell id="132" value="N" style="resizable=0;html=1;align=right;verticalAlign=bottom;" parent="130" connectable="0" vertex="1">
                    <mxGeometry x="1" relative="1" as="geometry">
                        <mxPoint x="43" as="offset"/>
                    </mxGeometry>
                </mxCell>
                <mxCell id="133" value="" style="endArrow=none;html=1;rounded=0;edgeStyle=orthogonalEdgeStyle;exitX=1;exitY=0.5;exitDx=0;exitDy=0;" parent="1" source="94" edge="1">
                    <mxGeometry relative="1" as="geometry">
                        <mxPoint x="280" y="710" as="sourcePoint"/>
                        <mxPoint x="480" y="440" as="targetPoint"/>
                        <Array as="points">
                            <mxPoint x="290" y="430"/>
                            <mxPoint x="290" y="350"/>
                            <mxPoint x="480" y="350"/>
                        </Array>
                    </mxGeometry>
                </mxCell>
                <mxCell id="134" value="1" style="resizable=0;html=1;align=right;verticalAlign=bottom;" parent="133" connectable="0" vertex="1">
                    <mxGeometry x="1" relative="1" as="geometry">
                        <mxPoint x="-5" as="offset"/>
                    </mxGeometry>
                </mxCell>
            </root>
        </mxGraphModel>
    </diagram>
</mxfile>